<svg width="17" height="16" viewBox="0 0 17 16" fill="none" xmlns="http://www.w3.org/2000/svg">
    <path d="M8.49992 9.44679C7.07992 9.44679 5.91992 8.29346 5.91992 6.86679C5.91992 5.44012 7.07992 4.29346 8.49992 4.29346C9.91992 4.29346 11.0799 5.44679 11.0799 6.87346C11.0799 8.30012 9.91992 9.44679 8.49992 9.44679ZM8.49992 5.29346C7.63326 5.29346 6.91992 6.00012 6.91992 6.87346C6.91992 7.74679 7.62659 8.45346 8.49992 8.45346C9.37326 8.45346 10.0799 7.74679 10.0799 6.87346C10.0799 6.00012 9.36659 5.29346 8.49992 5.29346Z" fill="black"/>
    <path d="M8.50012 15.1735C7.51345 15.1735 6.52012 14.8002 5.74678 14.0602C3.78012 12.1668 1.60678 9.14683 2.42678 5.5535C3.16678 2.2935 6.01345 0.833496 8.50012 0.833496C8.50012 0.833496 8.50012 0.833496 8.50678 0.833496C10.9935 0.833496 13.8401 2.2935 14.5801 5.56016C15.3934 9.1535 13.2201 12.1668 11.2534 14.0602C10.4801 14.8002 9.48678 15.1735 8.50012 15.1735ZM8.50012 1.8335C6.56012 1.8335 4.06678 2.86683 3.40678 5.7735C2.68678 8.9135 4.66012 11.6202 6.44678 13.3335C7.60012 14.4468 9.40678 14.4468 10.5601 13.3335C12.3401 11.6202 14.3134 8.9135 13.6068 5.7735C12.9401 2.86683 10.4401 1.8335 8.50012 1.8335Z" fill="black"/>
</svg>
