<svg width="17" height="16" viewBox="0 0 17 16" fill="none" xmlns="http://www.w3.org/2000/svg">
    <path d="M5.83337 3.8335C5.56004 3.8335 5.33337 3.60683 5.33337 3.3335V1.3335C5.33337 1.06016 5.56004 0.833496 5.83337 0.833496C6.10671 0.833496 6.33337 1.06016 6.33337 1.3335V3.3335C6.33337 3.60683 6.10671 3.8335 5.83337 3.8335Z" fill="black"/>
    <path d="M11.1666 3.8335C10.8933 3.8335 10.6666 3.60683 10.6666 3.3335V1.3335C10.6666 1.06016 10.8933 0.833496 11.1666 0.833496C11.44 0.833496 11.6666 1.06016 11.6666 1.3335V3.3335C11.6666 3.60683 11.44 3.8335 11.1666 3.8335Z" fill="black"/>
    <path d="M6.16667 9.66655C6.08 9.66655 5.99333 9.64656 5.91333 9.61322C5.82667 9.57989 5.76 9.53321 5.69333 9.47321C5.57333 9.34654 5.5 9.17988 5.5 8.99988C5.5 8.91322 5.52 8.82655 5.55333 8.74655C5.58667 8.66655 5.63333 8.59322 5.69333 8.52655C5.76 8.46655 5.82667 8.41987 5.91333 8.38654C6.15333 8.28654 6.45333 8.33989 6.64 8.52655C6.76 8.65322 6.83333 8.82655 6.83333 8.99988C6.83333 9.03988 6.82667 9.08656 6.82 9.13322C6.81333 9.17322 6.8 9.21322 6.78 9.25322C6.76667 9.29322 6.74667 9.33321 6.72 9.37321C6.7 9.40655 6.66667 9.43988 6.64 9.47321C6.51333 9.59321 6.34 9.66655 6.16667 9.66655Z" fill="black"/>
    <path d="M8.50004 9.66658C8.41337 9.66658 8.32671 9.64659 8.24671 9.61326C8.16004 9.57992 8.09337 9.53324 8.02671 9.47324C7.90671 9.34658 7.83337 9.17992 7.83337 8.99992C7.83337 8.91325 7.85338 8.82658 7.88671 8.74658C7.92004 8.66658 7.96671 8.59325 8.02671 8.52659C8.09337 8.46659 8.16004 8.41991 8.24671 8.38657C8.48671 8.27991 8.78671 8.33992 8.97337 8.52659C9.09337 8.65325 9.16671 8.82658 9.16671 8.99992C9.16671 9.03992 9.16004 9.08659 9.15337 9.13326C9.14671 9.17326 9.13337 9.21325 9.11337 9.25325C9.10004 9.29325 9.08004 9.33325 9.05338 9.37325C9.03338 9.40658 9.00004 9.43991 8.97337 9.47324C8.84671 9.59324 8.67337 9.66658 8.50004 9.66658Z" fill="black"/>
    <path d="M10.8333 9.66658C10.7466 9.66658 10.66 9.64659 10.58 9.61326C10.4933 9.57992 10.4266 9.53324 10.36 9.47324C10.3333 9.43991 10.3066 9.40658 10.28 9.37325C10.2533 9.33325 10.2333 9.29325 10.22 9.25325C10.2 9.21325 10.1866 9.17326 10.18 9.13326C10.1733 9.08659 10.1666 9.03992 10.1666 8.99992C10.1666 8.82658 10.24 8.65325 10.36 8.52659C10.4266 8.46659 10.4933 8.41991 10.58 8.38657C10.8266 8.27991 11.12 8.33992 11.3066 8.52659C11.4266 8.65325 11.5 8.82658 11.5 8.99992C11.5 9.03992 11.4933 9.08659 11.4866 9.13326C11.48 9.17326 11.4666 9.21325 11.4466 9.25325C11.4333 9.29325 11.4133 9.33325 11.3866 9.37325C11.3666 9.40658 11.3333 9.43991 11.3066 9.47324C11.18 9.59324 11.0066 9.66658 10.8333 9.66658Z" fill="black"/>
    <path d="M6.16667 11.9998C6.08 11.9998 5.99333 11.9798 5.91333 11.9465C5.83333 11.9131 5.76 11.8665 5.69333 11.8065C5.57333 11.6798 5.5 11.5065 5.5 11.3331C5.5 11.2465 5.52 11.1598 5.55333 11.0798C5.58667 10.9931 5.63333 10.9198 5.69333 10.8598C5.94 10.6131 6.39333 10.6131 6.64 10.8598C6.76 10.9865 6.83333 11.1598 6.83333 11.3331C6.83333 11.5065 6.76 11.6798 6.64 11.8065C6.51333 11.9265 6.34 11.9998 6.16667 11.9998Z" fill="black"/>
    <path d="M8.50004 11.9998C8.32671 11.9998 8.15337 11.9265 8.02671 11.8065C7.90671 11.6798 7.83337 11.5065 7.83337 11.3331C7.83337 11.2465 7.85338 11.1598 7.88671 11.0798C7.92004 10.9931 7.96671 10.9198 8.02671 10.8598C8.27337 10.6131 8.72671 10.6131 8.97337 10.8598C9.03337 10.9198 9.08004 10.9931 9.11337 11.0798C9.14671 11.1598 9.16671 11.2465 9.16671 11.3331C9.16671 11.5065 9.09337 11.6798 8.97337 11.8065C8.84671 11.9265 8.67337 11.9998 8.50004 11.9998Z" fill="black"/>
    <path d="M10.8333 11.9999C10.66 11.9999 10.4866 11.9266 10.36 11.8066C10.3 11.7466 10.2533 11.6733 10.22 11.5866C10.1866 11.5066 10.1666 11.4199 10.1666 11.3333C10.1666 11.2466 10.1866 11.1599 10.22 11.0799C10.2533 10.9933 10.3 10.9199 10.36 10.8599C10.5133 10.7066 10.7466 10.6333 10.96 10.6799C11.0066 10.6866 11.0466 10.6999 11.0866 10.7199C11.1266 10.7333 11.1666 10.7533 11.2066 10.78C11.24 10.8 11.2733 10.8333 11.3066 10.8599C11.4266 10.9866 11.5 11.1599 11.5 11.3333C11.5 11.5066 11.4266 11.6799 11.3066 11.8066C11.18 11.9266 11.0066 11.9999 10.8333 11.9999Z" fill="black"/>
    <path d="M14.1667 6.56006H2.83337C2.56004 6.56006 2.33337 6.33339 2.33337 6.06006C2.33337 5.78673 2.56004 5.56006 2.83337 5.56006H14.1667C14.44 5.56006 14.6667 5.78673 14.6667 6.06006C14.6667 6.33339 14.44 6.56006 14.1667 6.56006Z" fill="black"/>
    <path d="M11.1667 15.1668H5.83333C3.4 15.1668 2 13.7668 2 11.3335V5.66683C2 3.2335 3.4 1.8335 5.83333 1.8335H11.1667C13.6 1.8335 15 3.2335 15 5.66683V11.3335C15 13.7668 13.6 15.1668 11.1667 15.1668ZM5.83333 2.8335C3.92667 2.8335 3 3.76016 3 5.66683V11.3335C3 13.2402 3.92667 14.1668 5.83333 14.1668H11.1667C13.0733 14.1668 14 13.2402 14 11.3335V5.66683C14 3.76016 13.0733 2.8335 11.1667 2.8335H5.83333Z" fill="black"/>
</svg>
