<svg width="24" height="24" viewBox="0 0 24 24" fill="none" xmlns="http://www.w3.org/2000/svg">
    <path d="M12 14.1699C9.87 14.1699 8.13 12.4399 8.13 10.2999C8.13 8.15994 9.87 6.43994 12 6.43994C14.13 6.43994 15.87 8.16994 15.87 10.3099C15.87 12.4499 14.13 14.1699 12 14.1699ZM12 7.93994C10.7 7.93994 9.63001 8.99994 9.63001 10.3099C9.63001 11.6199 10.69 12.6799 12 12.6799C13.31 12.6799 14.37 11.6199 14.37 10.3099C14.37 8.99994 13.3 7.93994 12 7.93994Z" fill="#292D32" fill-opacity="0.8"/>
    <path d="M11.9999 22.76C10.5199 22.76 9.02993 22.2 7.86993 21.09C4.91993 18.25 1.65993 13.72 2.88993 8.33C3.99993 3.44 8.26993 1.25 11.9999 1.25C11.9999 1.25 11.9999 1.25 12.0099 1.25C15.7399 1.25 20.0099 3.44 21.1199 8.34C22.3399 13.73 19.0799 18.25 16.1299 21.09C14.9699 22.2 13.4799 22.76 11.9999 22.76ZM11.9999 2.75C9.08993 2.75 5.34993 4.3 4.35993 8.66C3.27993 13.37 6.23993 17.43 8.91993 20C10.6499 21.67 13.3599 21.67 15.0899 20C17.7599 17.43 20.7199 13.37 19.6599 8.66C18.6599 4.3 14.9099 2.75 11.9999 2.75Z" fill="#292D32" fill-opacity="0.8"/>
</svg>
