<svg width="130" height="17" viewBox="0 0 130 17" fill="none" xmlns="http://www.w3.org/2000/svg">
    <path d="M14.0943 4.22736C12.6422 6.55504 18.8004 8.29605 21.8387 6.8654C26.1386 4.84074 22.8195 1.33835 17.9665 0.658271C8.86422 -0.317291 0.803469 3.33927 1.00365 8.26201C1.17583 12.4962 6.10013 14.7781 11.9162 15.7187C14.7249 16.1729 17.6497 16.4466 19.4186 16.4865C42.1678 17.0002 73.0665 2.68191 104.256 3.24657C111.64 3.38026 129 5.00325 129 11.0602C128.708 13.543 125.884 15.8541 120.979 15.5523M120.979 15.5523C120.717 15.5362 120.449 15.5136 120.174 15.4841M120.979 15.5523C120.708 15.5446 120.439 15.5212 120.174 15.4841M120.174 15.4841C116.884 15.0231 115.003 12.2726 117.918 10.9C119.977 9.93022 123.287 11.1116 121.79 12.9174" stroke="black"/>
</svg>
