<svg width="130" height="17" viewBox="0 0 130 17" fill="none" xmlns="http://www.w3.org/2000/svg">
    <path d="M115.906 4.22736C117.358 6.55504 111.2 8.29605 108.161 6.8654C103.861 4.84074 107.181 1.33835 112.033 0.658271C121.136 -0.317291 129.197 3.33927 128.996 8.26201C128.824 12.4962 123.9 14.7781 118.084 15.7187C115.275 16.1729 112.35 16.4466 110.581 16.4865C87.8322 17.0002 56.9335 2.68191 25.7442 3.24657C18.3597 3.38026 1 5.00325 1 11.0602C1.29247 13.543 4.11584 15.8541 9.02094 15.5523M9.02094 15.5523C9.28282 15.5362 9.5511 15.5136 9.82583 15.4841M9.02094 15.5523C9.29197 15.5446 9.5611 15.5212 9.82583 15.4841M9.82583 15.4841C13.1156 15.0231 14.997 12.2726 12.0822 10.9C10.0225 9.93022 6.71267 11.1116 8.20996 12.9174" stroke="black"/>
</svg>
